<svg version="1.1" id="Layer_1" xmlns="http://www.w3.org/2000/svg" x="0" y="0" viewBox="0 0 450 216.6" xml:space="preserve"><style>.st0{fill:#ddd}.st10{fill-rule:evenodd;clip-rule:evenodd;fill:#369b88}</style><path class="st0" d="M147.8 94.1c-1.4-1.6-3.2-2.7-5.2-3.4-2.9-1-6.3-1.3-10.3-.8-1.2.2-2.5.4-3.8.7l-1 .2v36l.9.2c2.6.6 5.2.9 7.6.9 2.4 0 4.6-.3 6.6-1s3.8-1.9 5.2-3.4c1.4-1.5 2.5-3.6 3.3-6 .7-2.4 1.1-5.3 1.1-8.7 0-3.4-.4-6.3-1.1-8.7-.7-2.5-1.8-4.5-3.3-6zm-2.9 14.7c0 2.4-.2 4.5-.5 6.2-.3 1.6-.9 2.9-1.5 3.8-.7.9-1.5 1.6-2.5 2-1.4.6-3.2.8-5.4.6h-.3V96.2h.3c2-.1 4 .1 5.4.6 1 .4 1.9 1.1 2.5 2 .7 1 1.2 2.3 1.5 3.9.3 1.6.5 3.7.5 6.1zM167.6 111.1h10.1v-6.3h-10.1v-8.4h11.2V90h-18.2v37.6h19v-6.4h-12zM202.2 110c-.7-.9-1.5-1.6-2.4-2.3-.8-.6-1.6-1.2-2.4-1.7-.8-.5-1.5-1-2.2-1.5-.6-.4-1.2-.9-1.6-1.4-.4-.5-.8-1-1.1-1.6-.2-.5-.4-1.2-.4-2 0-1.4.4-2.4 1.1-3 .8-.7 1.8-1 3.2-1 .8 0 1.5.1 2.2.3.7.2 1.4.5 2 .9l1.3.8 2.4-6-.9-.5c-.9-.5-1.9-1-3.2-1.3-2.6-.7-5.8-.8-8.4.2-1.3.5-2.5 1.2-3.5 2.1-1 .9-1.8 2-2.3 3.4-.6 1.3-.8 2.8-.8 4.3 0 1.6.3 3 .7 4.3.5 1.2 1.1 2.3 1.9 3.2.7.9 1.6 1.7 2.5 2.3.9.6 1.7 1.2 2.4 1.7s1.3.9 2 1.4c.6.4 1.1.9 1.5 1.4.4.5.7 1 1 1.6.2.6.4 1.2.4 1.9 0 1.4-.4 2.5-1.1 3.2-.8.8-1.9 1.2-3.3 1.2-1.1 0-2-.1-2.8-.4-.8-.3-1.7-.7-2.5-1.2l-1.3-.8-2.3 6 .8.5c1 .7 2.2 1.2 3.5 1.6 1.3.4 2.9.6 4.6.6 1.9 0 3.6-.3 5-.9 1.5-.6 2.7-1.4 3.7-2.4s1.7-2.2 2.2-3.6c.4-1.3.7-2.7.7-4.1 0-1.6-.2-3-.7-4.2-.5-1.1-1.2-2.1-1.9-3zM211.5 90h7v37.6h-7zM241.2 95.7c1 0 1.9.2 2.7.4.8.3 1.6.7 2.3 1.2l1.3.9 2.3-6.2-.8-.5c-.9-.6-2-1.1-3.3-1.6-3.2-1.1-7.3-.9-10.4.4-1.8.7-3.4 1.9-4.6 3.6-1.2 1.6-2.2 3.7-2.8 6.1-.6 2.4-1 5.4-1 8.8 0 3.3.3 6.1 1 8.5.7 2.5 1.6 4.5 2.8 6.1 1.2 1.7 2.8 2.9 4.5 3.7 1.7.8 3.6 1.2 5.6 1.2 1.6 0 3.1-.2 4.5-.5s2.7-.7 3.7-1.2l.7-.3v-18.5h-7v14c-1.3.2-3 .1-4.3-.6-.8-.4-1.5-1.1-2.1-2.1-.6-1-1.1-2.4-1.5-4.1-.4-1.7-.6-3.9-.6-6.3 0-4.6.6-8 1.8-10.2 1-1.9 2.8-2.8 5.2-2.8zM275.4 110.7c-.1-.2-.2-.4-.3-.7-1-2.1-2-4.2-3.1-6.4s-2.2-4.3-3.4-6.5c-1.2-2.2-2.5-4.4-3.8-6.5l-.4-.6h-5.7v37.6h6.7v-23.3c.4.7.8 1.5 1.2 2.2 1.2 2.3 2.3 4.6 3.5 7 1.1 2.3 2.2 4.7 3.2 7s1.9 4.4 2.7 6.4l.3.8h5.8V90h-6.7v20.7zM306.7 110c-.7-.9-1.5-1.6-2.4-2.3-.8-.6-1.6-1.2-2.4-1.7-.8-.5-1.5-1-2.2-1.5-.6-.4-1.2-.9-1.6-1.4-.4-.5-.8-1-1.1-1.6-.2-.5-.4-1.2-.4-2 0-1.4.4-2.4 1.1-3 .8-.7 1.8-1 3.2-1 .8 0 1.5.1 2.3.3.7.2 1.4.5 2 .9l1.3.8 2.4-6-.9-.5c-.9-.5-1.9-1-3.2-1.3-2.6-.7-5.8-.8-8.4.2-1.3.5-2.5 1.2-3.5 2.1-1 .9-1.8 2.1-2.3 3.4-.6 1.3-.8 2.7-.8 4.3 0 1.6.3 3.1.7 4.3.5 1.2 1.1 2.3 1.9 3.2.8.9 1.6 1.7 2.5 2.3.8.6 1.7 1.2 2.4 1.7s1.3.9 1.9 1.4c.6.4 1.1.9 1.5 1.4.4.5.7 1 1 1.6.2.6.4 1.2.4 1.9 0 1.4-.4 2.5-1.1 3.2-.8.8-1.9 1.2-3.4 1.2-1.1 0-2-.1-2.8-.4-.8-.3-1.7-.7-2.5-1.2l-1.3-.8-2.3 6 .8.5c1 .7 2.2 1.2 3.5 1.6 1.3.4 2.9.6 4.6.6 1.9 0 3.6-.3 5-.9 1.5-.6 2.7-1.4 3.7-2.4s1.7-2.2 2.2-3.6c.4-1.3.7-2.7.7-4.1 0-1.6-.2-3-.7-4.2-.4-1.1-1-2.1-1.8-3zM334.5 120.3c-.7.5-1.5.9-2.3 1.2-.7.3-1.7.4-2.9.4-2.5 0-4.1-1-5.2-3.2-1.2-2.4-1.8-5.9-1.8-10.4s.6-7.8 1.7-9.9c1-1.9 2.5-2.7 4.8-2.7 1.1 0 2 .1 2.8.4.8.3 1.6.7 2.3 1.2l1.3.9 2.2-6.2-.8-.5c-.9-.6-2.1-1.2-3.5-1.6-3.1-.9-6.9-.8-9.9.4-1.7.7-3.2 1.9-4.4 3.4-1.2 1.5-2.2 3.5-2.8 6-.7 2.4-1 5.3-1 8.6 0 6.6 1.2 11.7 3.5 14.9 2.4 3.4 6 5.1 10.5 5.1 1.8 0 3.4-.2 4.8-.7 1.4-.5 2.5-1.1 3.4-1.8l.7-.5-2.1-5.9-1.3.9zM365.9 115.8c-.8-3.2-1.5-6.2-2.3-9-.8-2.9-1.5-5.6-2.3-8.2-.8-2.6-1.6-5.1-2.4-7.7l-.3-.9H352l-.3.9c-.8 2.5-1.6 5.1-2.4 7.7-.8 2.6-1.6 5.3-2.4 8.2-.8 2.8-1.5 5.9-2.3 9-.8 3.1-1.5 6.6-2.3 10.3l-.3 1.5h6.9l.2-1c.3-1.5.5-3 .8-4.5.2-1.1.4-2.3.7-3.4h9.1c.2 1.2.5 2.3.7 3.5.3 1.5.6 3 .8 4.5l.2 1h7.1l-.3-1.5c-.8-3.8-1.5-7.2-2.3-10.4zm-13.7-3.4c.6-2.4 1.2-4.8 1.9-7.1.4-1.4.8-2.9 1.2-4.3.4 1.4.8 2.9 1.2 4.3.6 2.3 1.2 4.7 1.8 7.2h-6.1zM392.3 92.6c-1.2-1-2.6-1.8-4.2-2.2-3.5-1-8-.9-12.4.2l-.9.2v36.8h7v-13h.9c1.9 0 3.6-.2 5.2-.7 1.6-.5 3.1-1.2 4.2-2.2 1.2-1 2.1-2.4 2.8-4 .6-1.6.9-3.5.9-5.6 0-2.1-.3-4-.9-5.6-.5-1.6-1.4-2.9-2.6-3.9zm-3.6 9.5c0 1.2-.1 2.2-.4 3-.3.7-.6 1.3-1.1 1.7-.5.4-1.1.8-1.9 1-.8.2-1.8.3-2.8.3h-.6V96.2c1.2-.1 2.6 0 3.7.3.7.2 1.2.5 1.6.9.4.4.8 1 1.1 1.8.2.7.4 1.7.4 2.9zM410.2 111.1h10.1v-6.3h-10.1v-8.4h11.2V90h-18.2v37.6h19v-6.4h-12zM446.7 113.1c-.5-1.2-1.1-2.2-1.8-3.1-.7-.9-1.5-1.6-2.4-2.3-.8-.6-1.6-1.2-2.4-1.7-.8-.5-1.5-1-2.2-1.5-.6-.4-1.2-.9-1.6-1.4-.4-.5-.8-1-1.1-1.6-.2-.5-.4-1.2-.4-2 0-1.4.4-2.4 1.1-3 .8-.7 1.8-1 3.2-1 .8 0 1.5.1 2.2.3.7.2 1.4.5 2 .9l1.3.8 2.4-6-.9-.5c-.9-.5-1.9-1-3.2-1.3-2.6-.7-5.8-.8-8.4.2-1.3.5-2.5 1.2-3.5 2.1-1 .9-1.8 2.1-2.3 3.4-.6 1.3-.8 2.7-.8 4.3 0 1.6.3 3 .7 4.3.5 1.2 1.1 2.3 1.9 3.2.7.9 1.6 1.7 2.5 2.3.8.6 1.7 1.2 2.4 1.7s1.3.9 1.9 1.4c.6.4 1.1.9 1.5 1.4.4.5.7 1 1 1.6.2.6.4 1.2.4 1.9 0 1.4-.4 2.5-1.1 3.2-.8.8-1.9 1.2-3.4 1.2-1.1 0-2-.1-2.8-.4-.8-.3-1.7-.7-2.5-1.2l-1.3-.8-2.3 6 .8.5c1 .7 2.2 1.2 3.5 1.6 1.3.4 2.9.6 4.6.6 1.9 0 3.6-.3 5-.9 1.5-.6 2.7-1.4 3.7-2.4s1.7-2.2 2.2-3.6c.4-1.3.7-2.7.7-4.1.1-1.5-.2-2.9-.6-4.1z"/><path d="M70.1 19.4c-1.1 0-1.9.9-1.9 1.9L67.1 193v6.5c0 .6.1 1.2.3 1.7h-.1c0 .5 0 1 .2 1.4.2.3 0 .7.2 1 .1.2.1.5.3.7v.4c0 .1 0 .2.1.3 0 .5.1 1.1.1 1.6 0 .1 0 .1-.2 0 0-.2 0-.3-.1-.5-.1.2 0 .3.1.5v.2c.1.4 0 .8.2 1.2v.4c.1.1 0 .2 0 .3v.4c0 .2 0 .5.1.8 0 .1.1.3 0 .4-.1 0-.1 0 0 .1 0 .1 0 .2.2.2 0 .2 0 .3.1.5s.2.4.1.6v.3s0 .1.1.1c0 .2.2.4.3.5 0 .1 0 .1.1.2l.1.1c.1 0 .2 0 .2.1.3.1.6.2.8.4.1.1.2.1.4.2.1.2.2.2.4 0 .2-.1.3.3.5 0 .1-.1.2-.3.2-.4 0-.1.2-.1.2-.2 0 0 .1 0 .1-.1 0 0 .1 0 .2-.1.2-.1.4-.1.5-.4.3-.2.4 0 .5.1.1.1.2.1.3.2.1 0 .1.1.2 0s-.1-.1 0-.2c0 0 .1-.1.2-.1s.2-.1.2-.2c.1 0 .2-.1.2-.1h.4c.4 0 .3.3.3.5 0 .1.1.2.3.2.2.2.5.4.7.6.1.2.2.3.3.5h.1c.1.1.3.1.3.2.2.2.2.1.3 0 0 0 0-.1.1-.2.1 0 .1-.1.1-.2v-.1c.3 0 .6 0 .7-.3.3.1.6.2.7.4l.3.3.3.3c.2 0 .5.3.7 0 .1-.1.3-.2.4-.4.3-.1.6-.3.9-.6.1 0 .4 0 .4-.2 0 0 .1-.1.2-.1.2-.1.3-.1.5-.2.1-.1.2-.2.1-.3l.1-.1c.3 0 .5-.1.6-.3h.2c.1.2.1.6.6.4.3-.1.5-.3.9-.4h.1c.2 0 .2-.2.4-.2.2.1.4.1.5 0 0 0 .1-.1.2-.1h.2c.1 0 .1.1.2.1 0 .1.2.1.3.2 0 .2.4 0 .5.2 0-.1.1-.2.1-.3 0-.1.2-.2.2-.3.1 0 .1 0 .2-.1.1.2.2.2.4 0 .1-.1.2-.2.2-.3.1-.1.3-.2.5-.4 0 0 .1-.1.2-.1.6-.2.9-.6 1.1-1 .3-.2.1-.5.1-.7.5 0 .5-.4.6-.6.1-.2.2-.5.1-.7.2 0 .1-.2.1-.3 0 0 .1-.1.1-.2.2-.4.3-.9.3-1.4.2-.8.3-1.7.3-2.5.1 0 .1-.1.1-.2 0-.2 0-.5-.1-.7.1-.1 0-.2 0-.3v-2.1c0-.3.1-.6.1-.9l.2-27.6v-.2l1-150.3c0-1.1-.9-2-1.9-2H70.1zm-1.7 176.4zm1.6-.2c-.1 0-.1-.1 0 0-.1-.1-.1-.1 0 0 0-.1 0-.1 0 0zm.7 9.4v-.2.2zm1.5-7.5zm.7 12.7s.1 0 0 0zm.1-1.7h-.1.1c0-.1 0 0 0 0zm.8-1.5v-.1c.1 0 .1 0 0 .1.1 0 .1 0 0 0zm2.4-6.1c.1-.3-.1-.6-.1-.8.3.2.3.5.1.8zm.4 3.4v-.1.1zm4.3 4.8s0-.1.1-.2c0 .1.1.2-.1.2zm.6 0s-.1 0 0 0zm2.6.8c0-.1 0-.1 0 0zm.1-.1c0-.1 0-.1 0 0zm.8-4.5c0-.1 0-.1 0 0 0-.1 0-.1 0 0zm1.4 3.7s0-.1 0 0c0-.1 0-.1 0 0zm.6-2.5c0-.1 0-.1 0 0 0-.1 0-.1 0 0zm.8-4.4zm.1 1.2zm1.4 1.6z" fill-rule="evenodd" clip-rule="evenodd" fill="#fbed1d"/><path d="M23 165.6l-.1-13.9-.1-10.7-.7-96.5-.1-8.2c0-.9-.7-1.6-1.6-1.6h-16c-.9 0-1.6.7-1.6 1.6v129.2c0 .3 0 .6.1.9v2.1c.1.1 0 .2 0 .3-.1.2-.1.5-.1.7v.2c0 .9.1 1.7.2 2.5 0 .5.1.9.2 1.4v.2c0 .1-.1.3.1.3-.1.2 0 .4 0 .7.1.2 0 .6.5.6 0 .2-.2.5.1.7.2.4.4.8.9 1 .1 0 .1.1.2.1.1.1.2.3.4.4 0 .1.1.2.2.3.1.2.2.1.3 0 0 0 .1 0 .1.1s.2.2.2.3c0 .1 0 .2.1.3 0-.2.4 0 .4-.2 0-.1.2-.1.2-.2.1 0 .1 0 .2-.1h.1s.1 0 .1.1c.1.1.3.1.4 0 .1.1.2.2.3.2h.1c.2.1.4.3.7.4H9c.2 0 .2-.3.3-.4h.1c.1.2.3.3.5.3 0 0 0 .1.1.1-.1.1 0 .2 0 .3.1.1.3.1.4.2l.1.1c0 .2.2.1.3.2.2.2.4.4.7.6 0 .2.2.2.3.4.2.2.4 0 .6 0l.3-.3c.1-.1.2-.1.2-.3.1-.3.3-.3.5-.4 0 .3.3.3.5.3v.1c0 .1.1.1.1.2 0 0 0 .1.1.2s.1.2.3 0c0-.1.2-.1.3-.2h.1c.1-.1.2-.3.3-.5.2-.2.4-.3.6-.6.1 0 .2-.1.2-.2 0-.2-.1-.4.2-.5h.3l.1.1.2.2.1.1c0 .1-.1.1 0 .2h.2l.2-.2c.1 0 .2-.3.4-.1 0 .2.2.2.4.4.1 0 .1 0 .2.1l.1.1c0 .1.2.1.2.2s0 .3.1.4c.2.2.2-.1.4 0 .1.3.2.2.3 0 .1 0 .2-.1.3-.2.2-.1.4-.3.7-.4.1 0 .1-.1.2-.1l.1-.1c0-.1.1-.1.1-.2.1-.1.2-.3.3-.5v-.1c.1-.1 0-.2 0-.3 0-.2 0-.4.1-.6.1-.2.1-.3.1-.5.1 0 .1-.1.1-.2v-.1c-.1-.1 0-.3 0-.4.1-.2.1-.5.1-.8v-.4-.3-.2-.2c.1-.4.1-.8.1-1.2v-.2c0-.2.1-.3 0-.5-.1.1-.1.3-.1.5-.1.1-.1 0-.1 0 0-.5.1-1.1.1-1.6.1-.1 0-.2 0-.3v-.4c.1-.2.1-.5.2-.7.1-.3 0-.7.2-1 .2-.5.1-.9.2-1.4h-.1c1-.7 1.1-1.3 1.1-1.9zm-17.9 5.5zm1.2-1.6s-.1 0 0 0c-.1-.1 0-.1 0 0zm0-1.2c0-.1 0-.1 0 0 .1-.1.1-.1 0 0 .1-.1.1 0 0 0zm1.2 6.8zm1.1-3.7zm.6 4.5zm.1.1zm2.1-.7zm.4 0c-.1 0-.1-.1 0-.2v.2c.1 0 .1 0 0 0zm.6-1.6c.1 0 .1 0 0 0 .1 0 .1 0 0 0zM11.2 66.8H6.6c-.7 0-1.2-.5-1.2-1.2v-8.2c0-.7.5-1.2 1.2-1.2h4.7c.7 0 1.2.5 1.2 1.2v8.2c0 .6-.6 1.2-1.3 1.2zm4.1 103.7s0-.1 0 0zm.4-3.5c-.2-.3-.1-.6 0-.8 0 .3-.1.5 0 .8h.1-.1zm1.8 6.2s0-.1 0 0c0-.1 0-.1.1-.1-.1 0 0 0-.1.1zm.7 1.4s.1 0 0 0h0zm.7-10.9zm.9 4.9c0-.1 0-.1 0 0zm.3 2.5v-.1.1zm.5-9.3c.1-.1.1-.1 0 0l.1-.1-.1.1zm1.3.1zM2 167.2z" fill-rule="evenodd" clip-rule="evenodd" fill="#6fcadb"/><path d="M40.2 2.8c-1.1 0-2 .9-2 1.9l-.3 33.6-1 117.7-.2 19c0 .8.2 1.6.4 2.4 0 0-.1 0-.1.1 0 .7 0 1.4.3 2 .3.5 0 1 .3 1.5.2.3.2.7.4 1v.5c0 .1 0 .3.1.4.1.8.1 1.5.2 2.3 0 .1 0 .2-.2.1 0-.2 0-.5-.2-.7-.1.3 0 .5.1.7v.3c.1.6.1 1.1.3 1.7v.6c.1.1.1.3.1.4 0 .2 0 .4.1.5.1.4 0 .8.2 1.2 0 .2.1.4-.1.6-.1 0-.1 0 0 .1 0 .1 0 .3.2.4 0 .2 0 .5.2.7.2.2.2.6.1.9 0 .1-.1.3.1.4 0 0 0 .1.1.2 0 .3.2.5.5.8 0 .1.1.2.1.3l.2.2c.2 0 .2.1.4.1.4.1.8.3 1.2.5.1.1.3.2.6.2.2.2.4.4.6 0 .3-.1.4.4.7.1.2-.2.2-.4.2-.6 0-.2.2-.2.3-.3.1 0 .1 0 .1-.1.1 0 .2-.1.3-.1.3-.1.6-.2.7-.5.4-.3.5.1.8.1.1.1.2.2.4.3.1 0 .2.1.3.1.1-.1-.1-.2-.1-.3.1-.1.2-.1.3-.2.1 0 .2-.1.3-.2.1 0 .2-.1.3-.1.2 0 .3 0 .6-.1.6 0 .5.4.5.7.1.1.1.2.4.3.3.3.7.6 1 .8.1.3.3.5.5.7l.1.1c.2.1.4.2.5.3.2.3.3.1.5 0 0-.1.1-.1.1-.2.1-.1.1-.2.2-.3v-.2c.4 0 .9 0 1-.4v-.1c.4.1.8.2.9.6.1.2.2.3.5.4.2.1.2.3.5.4.3 0 .7.4 1 0 .2-.2.5-.3.6-.5.5-.2.9-.5 1.2-.8.2-.1.5 0 .6-.2l.2-.2c.2-.1.5-.2.7-.3.2-.1.3-.2.1-.4 0 0 .1-.1.1-.2.4 0 .7-.1.9-.4h.3c.2.3.1.8.9.6.4-.2.8-.4 1.2-.5h.1c.3 0 .4-.3.6-.3.3.1.5.1.7-.1.1 0 .2-.1.3-.1h.2c.1.1.1.2.3.1 0 .2.3.1.4.3.1.3.6 0 .7.3.1-.1.2-.3.1-.4 0-.2.3-.3.3-.4.1 0 .2-.1.3-.1.1.1.1.2.2.2s.2 0 .3-.2c.1-.1.3-.3.3-.5.2-.2.4-.4.7-.6.1 0 .2-.1.3-.1.9-.3 1.3-.8 1.6-1.5.5-.3.2-.7.1-1 .7 0 .7-.5.8-.9.1-.3.3-.6.1-1 .3-.1.1-.3.2-.4.1-.1.1-.1.1-.2.2-.6.4-1.3.4-1.9.3-1.2.4-2.4.4-3.6.1 0 .1-.2.1-.3 0-.3.1-.7-.2-1v-.1c.1-.1-.1-.3.1-.4v-3c.1-.4.1-.9.1-1.3l1.4-155.6.4-14.8c0-1.1-.9-2-2-2H40.2zm7.8 9.4h7c.9 0 1.5.7 1.5 1.5v7.5c0 .9-.7 1.5-1.5 1.5h-7c-.9 0-1.5-.7-1.5-1.5v-7.5c0-.8.7-1.5 1.5-1.5zm-9.4 157.5zm2.1-.4h.1v.1l-.1-.1zm1.2 13.6c0-.1-.1-.1 0 0v-.2.1c-.1 0 0 0 0 .1zm.5-3.7c0-.1 0-.1 0 0 0-.1 0-.1 0 0 0-.1 0-.1 0 0zm1.6-7c.1-.1 0 0 0 0zm1 18zm.1-2.5c-.1 0-.1-.1-.2-.1l.2.1zm.6-9.6s-.1 0 0 0zm.7 7.6v-.1.1c.1-.1.1 0 .1 0h-.1zm3.1-8.8h.2-.2zm.8 5v-.2.2zm5.1 4.5zm1 2.2s-.1 0 0 0c0 0 0-.1.1-.2.1.1.2.3-.1.2zm.8.1c0-.1 0-.1 0 0 0-.1 0-.1 0 0zm3.7 1c0-.1 0-.1 0 0zm3.3-1.2c0-.1 0-.1 0 0-.1-.1-.1-.1 0 0 0-.1 0-.1 0 0zm.8-3.7zm1.3-6.1h-.1c0-.1 0 0 .1 0zm0 1.7s.1 0 0 0zm1 3.2l.1.1s-.1 0-.1-.1zm1.1-.9c-.1 0-.1 0 0 0zm.5-.9c0-.1 0 0 0 0zm-.1-2.4c0-.1 0-.1 0 0 0 0 .1 0 0 0zm2.3 4.5s0-.1 0 0c0-.1 0-.1 0 0zm2.8-6.8c0 .1 0 .1 0 0 0 .1 0 .1 0 0zm1.6 14.7zm2.3-9.5c0 .1 0 .1 0 0 .1.1.1.1 0 0 .1.1.1.1 0 0zm1.1 7.6s0 .1 0 0c0 .1 0 .1 0 0 0 .1 0 .1 0 0zm.6-10.1l.1.1-.1-.1c0-.1 0 0 0 0zm3.1 1.5c-.1 0 0 0 0 0-.1 0-.1 0 0 0zm.6-2.7h.1s.1 0 .1-.1c-.1 0-.2.1-.2.1zm.8 7zm3.1 4.6c.1 0 .1 0 0 0 .1 0 .1 0 0 0 .1 0 .1 0 0 0zm.2-6.2zm2.1-6.5c0 .1 0 .1 0 0 0 .1 0 .1 0 0zm2.1 3.6c0 .1 0 .1 0 0 0 .1 0 .1 0 0zm.2 0h-.1.1c-.1.1 0 .1 0 0 0 .1 0 0 0 0zm2.6-1.5zm1.7-.8c.1 0 .1 0 0 0 .1 0 .1 0 0 0z" fill-rule="evenodd" clip-rule="evenodd" fill="#e162a3"/><path d="M110.6 69.7l-24.3-12c-.7-.4-1.6.2-1.6 1V157c0 .6.1 1.2.3 1.8h-.1c0 .5 0 1.1.2 1.6.2.4 0 .8.2 1.1.1.3.1.6.3.8v.4c0 .1 0 .2.1.3 0 .6.1 1.2.2 1.7 0 .1 0 .2-.2.1 0-.2 0-.4-.1-.6-.1.2 0 .4.1.6v.3c.1.4.1.9.2 1.3v.6c.1.1 0 .2.1.3v.4c0 .3 0 .6.1.9 0 .1.1.3-.1.5-.1 0-.1 0 0 .1 0 .1 0 .2.2.3 0 .2 0 .4.1.6.1.2.2.4.1.6 0 .1-.1.2 0 .3 0 0 0 .1.1.1 0 .2.2.4.4.6 0 .1 0 .1.1.2l.1.1c.1 0 .2 0 .3.1.3.1.6.2.9.4.1.1.3.1.4.2.1.2.3.3.4 0 .2-.1.3.3.6 0 .1-.1.2-.3.2-.5 0-.1.2-.2.2-.3h.1c.1 0 .1 0 .2-.1.2-.1.5-.1.5-.4.3-.2.4 0 .6.1.1.1.2.1.3.2.1 0 .2.1.3 0v-.1-.1l.1-.1c.1 0 .2-.1.3-.2.1 0 .2-.1.2-.1h.4c.4 0 .3.3.4.5.1.1.1.2.3.2.2.3.5.4.8.7.1.2.2.4.4.5h.1c.1.1.3.2.4.3.2.2.3.1.4 0 0 0 0-.1.1-.2s.1-.1.1-.2v-.1c.3 0 .7 0 .7-.3v-.1c.3.1.7.2.7.5l.3.3c.1.1.2.2.4.3.2 0 .5.3.8 0 .1-.1.4-.2.4-.4.4-.1.7-.4.9-.6.1 0 .4 0 .4-.2.1 0 .1-.1.2-.1.2-.1.4-.2.6-.2.1-.1.2-.2.1-.3l.1-.1c.3 0 .6-.1.7-.3H102.7c.1.2.1.6.7.5.3-.1.6-.4 1-.4h.1c.2 0 .3-.2.4-.3.2.1.4.1.6-.1 0 0 .1-.1.2-.1h.2c.1 0 .1.1.2.1 0 .2.3.1.3.2 0 .3.5 0 .6.3 0-.1.1-.2.1-.3 0-.1.2-.2.2-.3.1 0 .1 0 .2-.1.1.2.2.2.4 0 .1-.1.2-.2.3-.4.1-.1.3-.3.5-.4.1 0 .2-.1.2-.1.6-.2 1-.6 1.2-1.1.4-.2.2-.5.1-.8.6 0 .5-.4.6-.7.1-.2.2-.5.1-.7.3-.1.1-.2.1-.3 0-.1.1-.1.1-.2.2-.5.3-1 .3-1.5.2-.9.3-1.8.3-2.8.1 0 .1-.1.1-.2 0-.3 0-.5-.1-.8.1-.1 0-.2.1-.3v-2.3l-1.1-87.3c.5-.6.3-1-.1-1.2zm-24.4 83.2zm1.6-.2h.1s.1.1.1.2c-.1-.1 0-.2-.2-.2zm.9 10.4c0-.1 0-.1 0 0v-.2.2zm.4-2.9zm1.3-5.4zm.7 14c0-.1.1-.1 0 0 .1 0 .1 0 0 0zm.1-2h-.1.1zm1-1.6c0-.1 0 0 0 0h.1-.1zm3-2.9v-.1.1zm4.8 5.2c-.1 0-.1 0 0 0v-.2c.1.1.1.2 0 .2zm.5 0zm1.4-7.5zm1.5 8.4s0-.1 0 0c0-.1 0-.1 0 0 0-.1 0-.1 0 0zm.1-.2zm2.4-.8zm1.6-7.6zm.1 1.4c0-.1 0-.1 0 0zm-.9-58.7h-7.4c-.7 0-1.3-.6-1.3-1.3v-8c0-.7.6-1.3 1.3-1.3h7.4c.7 0 1.3.6 1.3 1.3v8c0 .8-.6 1.3-1.3 1.3zm0-14.4h-7.4c-.7 0-1.3-.6-1.3-1.3v-8c0-.7.6-1.3 1.3-1.3h7.4c.7 0 1.3.6 1.3 1.3v8c0 .7-.6 1.3-1.3 1.3zm2.5 74.8s-.1 0 0 0zm.3-2.5s.1 0 0 0zm1.8 3.5c0-.1 0-.1 0 0 0-.1 0-.1 0 0 0-.1 0-.1 0 0z" fill-rule="evenodd" clip-rule="evenodd" fill="#779fd4"/><path d="M93.2 61.3l-6.9-3.4c-.7-.4-1.6.2-1.6 1v98.3c0 .6.1 1.2.3 1.8h-.1c0 .5 0 1.1.2 1.6.2.4 0 .8.2 1.1.1.3.1.6.3.8v.4c0 .1 0 .2.1.3 0 .6.1 1.2.2 1.7 0 .1 0 .2-.2.1 0-.2 0-.4-.1-.6-.1.2 0 .4.1.6v.3c.1.4.1.9.2 1.3v.6c.1.1 0 .2.1.3v.4c0 .3 0 .6.1.9 0 .1.1.3-.1.5-.1 0-.1 0 0 .1 0 .1 0 .2.2.3 0 .2 0 .4.1.6.1.2.2.4.1.6 0 .1-.1.2 0 .3 0 0 0 .1.1.1 0 .2.2.4.4.6 0 .1 0 .1.1.2l.1.1c.1 0 .2 0 .3.1.3.1.6.2.9.4.1.1.3.1.4.2.1.2.3.3.4 0 .2-.1.3.3.6 0 .1-.1.2-.3.2-.5 0-.1.2-.2.2-.3h.1c.1 0 .1 0 .2-.1.2-.1.5-.1.5-.4.3-.2.4 0 .6.1.1.1.2.1.3.2.1 0 .2.1.3 0v-.1-.1l1.1-110.4zm-6.9 91.8c-.1 0-.1 0 0 0-.1 0-.1 0 0 0zm1.5-.2h.1s.1.1.1.2c0-.1 0-.2-.2-.2zm.9 10.4c0-.1 0-.1 0 0v-.2.2zm.4-2.9zm1.3-5.3c0-.1 0-.1 0 0 0-.1 0-.1 0 0zm.8 13.9c0-.1 0-.1 0 0zm0-2h-.1.1zm1-1.6c0-.1 0 0 0 0h.1-.1z" opacity=".3" fill-rule="evenodd" clip-rule="evenodd" fill="#6587c4"/><path d="M58.3 130.9l-1.9-97.5c0-1.1-1.2-1.9-2.2-1.5L18.4 46c-1 .4-1.7 1.4-1.7 2.5v82.4c0 .5 0 1 .1 1.5 0 1.2-.1 2.3 0 3.5.2.1 0 .3.1.4v.1c-.3.4-.1.8-.2 1.2 0 .1 0 .2.1.3-.1 1.4.1 2.8.5 4.2 0 .8.1 1.5.4 2.2 0 .1 0 .2.1.3 0 .2-.2.4.2.5-.2.4 0 .8.1 1.1.1.4.1 1 1 1-.1.4-.4.8.2 1.2.3.7.9 1.4 1.8 1.7.1 0 .3.1.4.1.3.2.5.4.8.6 0 .2.2.4.4.6 0 .1.1.1.2.2s.3 0 .4-.2c.1 0 .2.1.3.1 0 .2.3.3.3.5s.1.4.2.5c.1-.3.8 0 .9-.4 0-.2.4-.1.4-.4.2.1.3 0 .4-.1h.3c.1 0 .2.1.3.1.2.3.5.3.9.1.2.1.3.4.7.4h.1c.5.1.9.4 1.4.6.1 0 .3.1.4.1.5 0 .5-.5.7-.7h.4c.2.4.6.5 1 .5 0 .1.1.1.1.2-.2.2-.1.3.1.4.2.1.5.3.8.4.1.1.2.1.3.2 0 .3.4.2.6.3.4.4.9.7 1.4 1 .1.3.4.4.6.6.3.2.6.1.8 0 .1 0 .2-.1.4-.1.2-.1.4-.3.5-.5.2-.1.4-.2.5-.4.1-.5.7-.6 1.1-.8v.1c.1.5.6.5 1.1.4v.2c0 .1.1.2.2.3.1.1.1.2.2.3.2.2.3.4.6.1.1-.2.4-.3.6-.4 0 0 .1 0 .1-.1.2-.2.4-.5.6-.8.4-.3.9-.6 1.2-1 .2 0 .3-.2.4-.3 0-.3-.1-.7.6-.8.2 0 .4.1.7.1.1 0 .2.1.3.1.1.1.2.2.4.3.1.1.2.1.3.2 0 .1-.3.2-.1.3.2.1.3 0 .4-.1.1-.1.3-.2.4-.3.3-.1.5-.5.9-.2 0 .3.5.4.8.6.1 0 .3.1.4.1l.1.1c.1.1.4.2.4.4 0 .3 0 .5.3.7.3.4.5-.2.8-.1.2.4.4.3.7 0 .3 0 .5-.1.7-.3.4-.2.9-.4 1.4-.6.1-.1.2-.2.4-.2l.2-.2c.1-.1.2-.2.1-.3.3-.2.5-.5.6-.9 0-.1.1-.1.1-.2.2-.1.1-.3.1-.5-.1-.3 0-.7.1-1 .2-.3.2-.5.2-.9.3 0 .3-.2.3-.4.1-.1.1-.1 0-.1-.2-.2 0-.5-.1-.7.3-.4.1-.9.2-1.3v-.1c.1-.2.1-.4.1-.6 0-.2 0-.4.1-.5v-.4c0-.1 0-.2.1-.4.2-.6.2-1.3.3-1.9v-.4c.1-.3.2-.5.1-.8-.3.3-.2.5-.2.8-.2.1-.3 0-.3-.1.1-.9.2-1.7.2-2.6.2-.1.1-.3.2-.5v-.6c.2-.4.2-.8.4-1.2.3-.5 0-1.2.3-1.7.4-.7.3-1.5.3-2.3 0 0-.1 0-.1-.1.7-.4.9-1.3.9-2.3zm-39.9 10.3c0-.1 0 0 0 0zm2.6-2.4zm.1-2.8c-.1 0 0 0 0 0zm.5 3.8c.1 0 0 0 0 0zm1.1 1.3c.1-.1.1-.1.2-.1-.1 0-.2.1-.2.1zm1.3-3.9c-.1-.1 0-.1 0-.1v.1zm0-2c.1 0 .1 0 0 0 .1 0 .1 0 0 0zm2.5 11.3zm2.2-6.1zm1.5 7.6c.1-.1.1-.1 0 0zm2.3-12.6zm2 11.4c.1-.1.1-.1 0 0 .1 0 0 0 0 0zm.9-.1c-.3 0-.2-.1-.1-.3.1.2.1.3.1.3.1 0 .1 0 0 0zm1.2-2.5c0-.1 0-.1 0 0 .1-.1.1-.1 0 0 .1-.1.1 0 0 0zm5.9-5.3v-.2c.1.1.1.1 0 .2zm4.4 4.4s0-.1.1-.1h.1v.2h-.2zm1.7 5.3c0-.1 0-.1 0 0zm-.1-2.9c0-.1.1-.1 0 0l.2-.1s-.1 0-.2.1zm1.3-18s-.1 0 0 0zm1.9 8.1s0-.1 0 0c0-.1 0-.1 0 0v-.1.1zm.6 4.2v-.2-.2.4zm1-15.3c0-.1.2-.2.2-.3h.2c-.3.1-.2.2-.4.3zm2.7.1c.1 0 .1 0 0 0 .1 0 .1 0 0 0z" fill-rule="evenodd" clip-rule="evenodd" fill="#33bbad"/><path d="M73.9 19.4h-3.8c-1.1 0-1.9.9-1.9 1.9L67.1 193c.1 0 .2 0 .3-.2.1-.1.3-.3.3-.5.2-.2.4-.4.7-.6.1 0 .2-.1.3-.1.9-.3 1.3-.8 1.6-1.5.5-.3.2-.7.1-1 .7 0 .7-.5.8-.9.1-.3.3-.6.1-1 .3-.1.1-.3.2-.4.1-.1.1-.1.1-.2.2-.6.4-1.3.4-1.9.3-1.2.4-2.4.4-3.6.1 0 .1-.2.1-.3 0-.3.1-.7-.2-1v-.1c.1-.1-.1-.3.1-.4v-3c.1-.4.1-.9.1-1.3l1.4-155.6zm-6.6 164.2l.1.1s-.1 0-.1-.1zm1.1-.9c-.1 0-.1 0 0 0zm.4-3.4c0 .1.1.1 0 0 0 .1 0 .1 0 0zm.1 2.5c0-.1 0 0 0 0zm2.2 2.1s0-.1 0 0c0-.1 0-.1 0 0z" fill-rule="evenodd" clip-rule="evenodd" fill="#d3619e"/><path d="M58.3 130.9l-1.9-97.5c0-1.1-1.2-1.9-2.2-1.5l-16.3 6.4-1 117.7c.1 0 .2-.1.4-.1.2-.1.4-.3.5-.5.2-.1.4-.2.5-.4.1-.5.7-.6 1.1-.8v.1c.1.5.6.5 1.1.4v.2c0 .1.1.2.2.3.1.1.1.2.2.3.2.2.3.4.6.1.1-.2.4-.3.6-.4 0 0 .1 0 .1-.1.2-.2.4-.5.6-.8.4-.3.9-.6 1.2-1 .2 0 .3-.2.4-.3 0-.3-.1-.7.6-.8.2 0 .4.1.7.1.1 0 .2.1.3.1.1.1.2.2.4.3.1.1.2.1.3.2 0 .1-.3.2-.1.3.2.1.3 0 .4-.1.1-.1.3-.2.4-.3.3-.1.5-.5.9-.2 0 .3.5.4.8.6.1 0 .3.1.4.1l.1.1c.1.1.4.2.4.4 0 .3 0 .5.3.7.3.4.5-.2.8-.1.2.4.4.3.7 0 .3 0 .5-.1.7-.3.4-.2.9-.4 1.4-.6.1-.1.2-.2.4-.2l.2-.2c.1-.1.2-.2.1-.3.3-.2.5-.5.6-.9 0-.1.1-.1.1-.2.2-.1.1-.3.1-.5-.1-.3 0-.7.1-1 .2-.3.2-.5.2-.9.3 0 .3-.2.3-.4.1-.1.1-.1 0-.1-.2-.2 0-.5-.1-.7.3-.4.1-.9.2-1.3v-.1c.1-.2.1-.4.1-.6 0-.2 0-.4.1-.5v-.4c0-.1 0-.2.1-.4.2-.6.2-1.3.3-1.9v-.4c.1-.3.2-.5.1-.8-.3.3-.2.5-.2.8-.2.1-.3 0-.3-.1.1-.9.2-1.7.2-2.6.2-.1.1-.3.2-.5v-.6c.2-.4.2-.8.4-1.2.3-.5 0-1.2.3-1.7.4-.7.3-1.5.3-2.3 0 0-.1 0-.1-.1.5-.6.7-1.5.7-2.5zm-15.7 8s-.1 0 0 0v-.2.2zm4.3 4.4s0-.1.1-.1h.1v.2h-.2zm1.7 5.3c0-.1 0-.1 0 0zm0-2.9c0-.1 0-.1 0 0l.2-.1c-.1 0-.1 0-.2.1zm1.2-18s0-.1 0 0c0-.1.1-.1 0 0 .1 0 0 0 0 0zm1.9 8.1s0-.1 0 0c0-.1 0-.1 0 0v-.1.1zm.6 4.2v-.2-.2.4c.1 0 0 0 0 0zm1-15.3c0-.1.2-.2.2-.3h.2c-.3 0-.2.2-.4.3zm2.7.1c.1 0 .1 0 0 0 .1 0 .1 0 0 0z" opacity=".5" fill-rule="evenodd" clip-rule="evenodd" fill="#389888"/><g opacity=".2"><path class="st10" d="M22.6 141.1c.1 0 .1 0 0 0l.1-.1-.7-96.5-3.6 1.5c-1 .4-1.7 1.4-1.7 2.5v82.4c0 .5 0 1 .1 1.5 0 1.2-.1 2.3 0 3.5.2.1 0 .3.1.4v.1c-.3.4-.1.8-.2 1.2 0 .1 0 .2.1.3-.1 1.4.1 2.8.5 4.2 0 .8.1 1.5.4 2.2 0 .1 0 .2.1.3 0 .2-.2.4.2.5-.2.4 0 .8.1 1.1.1.4.1 1 1 1-.1.4-.4.8.2 1.2.3.7.9 1.4 1.8 1.7.1 0 .3.1.4.1.3.2.5.4.8.6 0 .2.2.4.4.6 0 .1.1.1.2.2l-.1-10.6c-.1 0-.1.1-.2.1zM18.4 141.2zM20.9 138.8zM21.1 136c-.1 0-.1 0 0 0-.1 0-.1 0 0 0zM21.6 139.8c.1 0 0 0 0 0z"/></g></svg>